<svg t="1711694264576" class="icon" viewBox="0 0 1024 1024" version="1.1" xmlns="http://www.w3.org/2000/svg" p-id="34222" width="30" height="30"><path d="M512 512m-512 0a512 512 0 1 0 1024 0 512 512 0 1 0-1024 0Z" fill="#2E3148" p-id="34223"></path><path d="M512 512m-297.086976 0a297.086976 297.086976 0 1 0 594.173952 0 297.086976 297.086976 0 1 0-594.173952 0Z" fill="#1B1E36" p-id="34224"></path><path d="M513.052672 65.318912c-55.267328 0-100.081664 200.45824-100.081664 447.737856s44.814336 447.737856 100.081664 447.737856 100.081664-200.45824 100.081664-447.737856S568.32 65.318912 513.052672 65.318912zM519.962624 935.5264c-6.320128 8.429568-12.640256 2.105344-12.640256 2.105344-25.452544-29.4912-38.178816-84.279296-38.178816-84.279296-44.519424-143.273984-33.923072-450.895872-33.923072-450.895872 20.922368-244.219904 58.9824-301.912064 71.933952-314.720256a7.901184 7.901184 0 0 1 10.133504-0.8192c18.792448 13.316096 34.553856 69.005312 34.553856 69.005312 46.542848 172.773376 42.328064 335.01184 42.328064 335.01184 4.214784 141.16864-23.322624 299.19232-23.322624 299.19232-21.1968 120.09472-50.884608 145.399808-50.884608 145.399808z" fill="#6F7390" p-id="34225"></path><path d="M901.414912 290.238464c-27.516928-47.955968-223.678464 12.935168-438.272 135.9872s-365.965312 261.689344-338.468864 309.624832 223.678464-12.935168 438.272-135.9872 365.965312-261.689344 338.468864-309.624832zM150.061056 729.27232c-10.534912-1.327104-8.155136-9.986048-8.155136-9.986048 12.92288-36.745216 54.04672-75.051008 54.04672-75.051008 102.166528-109.920256 374.288384-253.80864 374.288384-253.80864 222.224384-103.391232 291.250176-99.028992 308.760576-94.208a7.901184 7.901184 0 0 1 5.7344 8.429568c-2.105344 22.9376-42.668032 64.3072-42.668032 64.3072-126.615552 126.398464-269.447168 203.493376-269.447168 203.493376-120.352768 73.9328-271.126528 128.651264-271.126528 128.651264-114.724864 41.340928-151.42912 28.172288-151.42912 28.172288z" fill="#6F7390" p-id="34226"></path><path d="M900.44416 737.447936c27.72992-47.828992-123.260928-187.101184-337.1008-311.078912S153.366528 240.746496 125.661184 288.657408s123.260928 187.101184 337.22368 311.078912 409.853952 185.626624 437.559296 137.711616zM144.03584 307.13856c-4.096-9.711616 4.550656-12.050432 4.550656-12.050432C186.867712 287.858688 240.64 304.3328 240.64 304.3328c146.28864 33.312768 407.1424 196.7104 407.1424 196.7104 200.839168 140.537856 231.641088 202.440704 236.25728 220.012544a7.901184 7.901184 0 0 1-4.38272 9.187328c-20.942848 9.588736-77.033472-4.698112-77.033472-4.698112-172.879872-46.354432-311.140352-131.284992-311.140352-131.284992-124.227584-67.002368-247.066624-170.098688-247.066624-170.098688-93.339648-78.589952-100.352-116.916224-100.352-116.916224z" fill="#6F7390" p-id="34227"></path><path d="M512 512m-52.67456 0a52.67456 52.67456 0 1 0 105.34912 0 52.67456 52.67456 0 1 0-105.34912 0Z" fill="#B7B9C8" p-id="34228"></path><path d="M697.413632 309.727232a31.604736 30.552064 90 1 0 61.104128 0 31.604736 30.552064 90 1 0-61.104128 0Z" fill="#B7B9C8" p-id="34229"></path><path d="M195.948544 417.185792a31.604736 30.552064 90 1 0 61.104128 0 31.604736 30.552064 90 1 0-61.104128 0Z" fill="#B7B9C8" p-id="34230"></path><path d="M419.291136 804.872192a31.604736 30.552064 90 1 0 61.104128 0 31.604736 30.552064 90 1 0-61.104128 0Z" fill="#B7B9C8" p-id="34231"></path></svg>