<svg t="1711630448894" class="icon" viewBox="0 0 1024 1024" version="1.1" xmlns="http://www.w3.org/2000/svg" p-id="25668" width="20" height="20"><path d="M512 512m-512 0a512 512 0 1 0 1024 0 512 512 0 1 0-1024 0Z" fill="#2E3148" p-id="25669"></path><path d="M512 512m-297.073778 0a297.073778 297.073778 0 1 0 594.147556 0 297.073778 297.073778 0 1 0-594.147556 0Z" fill="#1B1E36" p-id="25670"></path><path d="M513.052444 65.308444c-55.267556 0-100.067556 200.476444-100.067555 447.744 0 247.296 44.8 447.715556 100.067555 447.715556 55.267556 0 100.096-200.419556 100.096-447.715556 0-247.267556-44.828444-447.715556-100.096-447.715555z m6.912 870.229334c-6.314667 8.419556-12.629333 2.104889-12.629333 2.104889C481.848889 908.145778 469.134222 853.333333 469.134222 853.333333c-44.515556-143.274667-33.905778-450.901333-33.905778-450.901333 20.906667-244.224 58.965333-301.909333 71.936-314.737778a7.907556 7.907556 0 0 1 10.126223-0.796444c18.773333 13.312 34.56 69.006222 34.56 69.006222 46.535111 172.771556 42.325333 334.990222 42.325333 334.990222 4.209778 141.169778-23.324444 299.207111-23.324444 299.207111-21.191111 120.092444-50.915556 145.408-50.915556 145.408z" fill="#6F7390" p-id="25671"></path><path d="M901.404444 290.247111c-27.505778-47.957333-223.658667 12.913778-438.272 135.964445-214.584889 123.079111-365.966222 261.688889-338.460444 309.646222 27.505778 47.928889 223.687111-12.942222 438.272-135.992889s365.966222-261.688889 338.488889-309.617778zM150.072889 729.258667c-10.524444-1.308444-8.163556-9.955556-8.163556-9.955556 12.913778-36.750222 54.044444-75.093333 54.044445-75.093333 102.172444-109.880889 374.300444-253.781333 374.300444-253.781334 222.208-103.395556 291.242667-99.043556 308.736-94.208 3.697778 1.024 6.144 4.608 5.745778 8.419556-2.104889 22.954667-42.666667 64.312889-42.666667 64.312889-126.606222 126.407111-269.454222 203.491556-269.454222 203.491555-120.348444 73.955556-271.132444 128.654222-271.132444 128.654223-114.716444 41.329778-151.409778 28.16-151.409778 28.16z" fill="#6F7390" p-id="25672"></path><path d="M900.437333 737.450667c27.733333-47.843556-123.249778-187.107556-337.095111-311.068445-213.845333-124.017778-409.969778-185.628444-437.674666-137.728-27.704889 47.900444 123.249778 187.107556 337.208888 311.068445 213.959111 124.017778 409.884444 185.628444 437.560889 137.728zM144.042667 307.143111c-4.096-9.728 4.551111-12.060444 4.551111-12.060444 38.286222-7.224889 92.046222 9.244444 92.046222 9.244444 146.289778 33.308444 407.153778 196.721778 407.153778 196.721778 200.817778 140.515556 231.623111 202.439111 236.259555 220.017778a7.907556 7.907556 0 0 1-4.408889 9.187555c-20.935111 9.585778-77.027556-4.721778-77.027555-4.721778-172.885333-46.364444-311.125333-131.271111-311.125333-131.271111-124.245333-67.015111-247.068444-170.097778-247.068445-170.097777-93.354667-78.592-100.352-116.906667-100.352-116.906667l-0.028444-0.113778z" fill="#6F7390" p-id="25673"></path><path d="M512 512m-52.679111 0a52.679111 52.679111 0 1 0 105.358222 0 52.679111 52.679111 0 1 0-105.358222 0Z" fill="#B7B9C8" p-id="25674"></path><path d="M697.429333 309.731556a31.601778 30.549333 90 1 0 61.098667 0 31.601778 30.549333 90 1 0-61.098667 0Z" fill="#B7B9C8" p-id="25675"></path><path d="M195.953778 417.194667a31.601778 30.549333 90 1 0 61.098666 0 31.601778 30.549333 90 1 0-61.098666 0Z" fill="#B7B9C8" p-id="25676"></path><path d="M419.299556 804.864a31.601778 30.549333 90 1 0 61.098666 0 31.601778 30.549333 90 1 0-61.098666 0Z" fill="#B7B9C8" p-id="25677"></path></svg>