<svg t="1711630553771" class="icon" viewBox="0 0 1032 1024" version="1.1" xmlns="http://www.w3.org/2000/svg" p-id="31019" width="20" height="20"><path d="M982.673579 38.461572C914.903827-30.906523 787.03637-5.652701 613.775965 107.829668A413.970893 413.970893 0 0 0 115.41255 602.037391c-120.515079 179.653778-147.047576 311.357259-77.679481 381.045023A135.859173 135.859173 0 0 0 137.150017 1021.442651c77.67948 0 174.539079-45.712616 269.800335-109.007008a415.569237 415.569237 0 0 0 511.46983-515.94519c14.704758-22.696474 28.130841-45.392947 39.95858-67.130415C1032.222219 192.861527 1040.213935 96.960934 982.673579 38.461572zM128.838633 892.296519c-3.196686-12.147408 0-58.179693 48.269965-146.408239 7.352379 10.549065 14.704758 21.09813 23.016142 31.966865a63.933729 63.933729 0 0 0 98.457942-81.515505A287.701779 287.701779 0 1 1 776.487304 380.826689a1714.063266 1714.063266 0 0 1-182.850464 212.899317c-243.267838 243.267838-427.396976 311.03759-464.798207 298.570513z m432.192006-95.900593c45.392947-38.360237 87.589208-77.359812 123.072427-112.843031 43.794604-43.794604 84.712191-88.548214 121.793754-132.982156 0 4.475361 0 9.270391-1.918012 13.745752a287.701779 287.701779 0 0 1-243.267838 232.718772zM757.307186 171.443728C837.863684 128.927798 880.379613 126.370449 891.887685 128.927798c5.434367 16.942438-5.434367 63.933729-40.917587 132.02315a418.446254 418.446254 0 0 0-93.662912-89.50722z" fill="#BA63C6" p-id="31020"></path></svg>