<svg t="1711617227068" class="icon" viewBox="0 0 1024 1024" version="1.1" xmlns="http://www.w3.org/2000/svg" p-id="15069" width="20" height="20"><path d="M185.335 178.178l-2.742-2.384c-13.39-11.534-14.895-31.74-3.36-45.13a32 32 0 0 1 4.324-4.158C249.354 74.17 337.575 48 448.22 48 704.358 48 912 255.74 912 512l-0.062 7.673C907.842 772.394 701.797 976 448.22 976c-110.645 0-198.866-26.169-264.663-78.506a32 32 0 0 1-4.325-4.159c-11.419-13.256-10.058-33.192 2.962-44.78l0.399-0.35 2.742-2.383c89.13-78.201 134.016-188.043 134.66-329.525L320 512c0.253-143.557-44.635-254.831-134.665-333.822z" fill="currentColor" p-id="15070"></path></svg>