<svg t="1711621218847" class="icon" viewBox="0 0 1024 1024" version="1.1" xmlns="http://www.w3.org/2000/svg" p-id="19258" width="20" height="20"><path d="M341.034667 512c0 94.250667 76.714667 170.965333 170.965333 170.965333s170.965333-76.714667 170.965333-170.965333S606.250667 341.034667 512 341.034667 341.034667 417.749333 341.034667 512zM512 426.368c47.189333 0 85.632 38.4 85.632 85.632s-38.4 85.632-85.632 85.632S426.368 559.189333 426.368 512 464.810667 426.368 512 426.368z m225.834667 371.797333l-85.333334-85.333333 60.330667-60.330667 85.333333 85.333334z m-426.666667-426.666666l-85.333333-85.333334 60.330666-60.330666 85.333334 85.333333zM149.888 469.333333h120.704v85.333334H149.888z m603.392 0h120.661333v85.333334h-120.661333z m-284.032-319.36h85.333333v120.704h-85.333333z m0 603.392h85.333333v120.661334h-85.333333z m243.498667-381.824l-60.330667-60.373333 85.376-85.333333 60.330667 60.330666z m-426.624 426.624l-60.330667-60.330666 85.290667-85.333334 60.330666 60.373334z" fill="currentColor" p-id="19259"></path></svg>